<svg width="24" height="24" viewBox="0 0 24 24" fill="none" xmlns="http://www.w3.org/2000/svg">
<g id="Avatar icon">
<circle id="Ellipse 51" cx="12" cy="12" r="11.5" stroke="#61A4AD"/>
<path id="Subtract" fill-rule="evenodd" clip-rule="evenodd" d="M17.9969 19.7464C20.3082 17.9545 21.7959 15.151 21.7959 12C21.7959 6.58988 17.4102 2.2041 12 2.2041C6.58988 2.2041 2.2041 6.58988 2.2041 12C2.2041 15.1928 3.73156 18.0288 6.09558 19.8172C6.67381 19.2749 7.37547 18.8572 8.16202 18.6104C8.46471 18.5154 8.77521 18.4475 9.08988 18.4073L9.1964 18.3937C11.1142 18.1489 13.0553 18.1489 14.9731 18.3937L15.0796 18.4073C15.3943 18.4475 15.7048 18.5154 16.0075 18.6104C16.7594 18.8463 17.4338 19.2385 17.9969 19.7464ZM12.0814 4.87278C9.55552 4.87278 7.53187 6.96501 7.61604 9.48947L7.66823 11.0547C7.08776 10.9517 6.54737 11.4651 6.66572 12.0787L6.77264 12.6331C6.86115 13.0921 7.21158 13.4558 7.66688 13.5614L8.29843 13.7079C8.7387 15.3931 10.2709 16.6278 12.0833 16.6278C13.9806 16.6278 15.5708 15.2748 15.9228 13.4683L16.5776 13.3165C17.0329 13.2109 17.3833 12.8472 17.4718 12.3882L17.5787 11.8338C17.7021 11.1941 17.1096 10.6634 16.5021 10.8263L16.5467 9.48947C16.6309 6.96501 14.6072 4.87278 12.0814 4.87278Z" fill="#61A4AD"/>
</g>
</svg>
