<svg width="24" height="24" viewBox="0 0 24 24" fill="none" xmlns="http://www.w3.org/2000/svg">
<g id="Notification">
<path id="Union" fill-rule="evenodd" clip-rule="evenodd" d="M6.00928 10.5731C6.00928 7.62005 8.09776 5.15477 10.8783 4.57373C10.7098 5.01587 10.5861 5.48009 10.5127 5.96086C8.61167 6.63088 7.24928 8.4429 7.24928 10.5731V14.9583C7.24928 15.4217 7.06516 15.8662 6.73743 16.1939L5.95012 16.9811C5.80087 17.1303 5.71702 17.3327 5.71702 17.5438C5.71702 18.0855 6.15614 18.5246 6.69782 18.5246H17.5788C18.1205 18.5246 18.5596 18.0855 18.5596 17.5438C18.5596 17.3327 18.4758 17.1303 18.3265 16.9811L17.5392 16.1939C17.2115 15.8662 17.0274 15.4217 17.0274 14.9583V13.803C17.0994 13.8053 17.1717 13.8064 17.2443 13.8064C17.592 13.8064 17.9337 13.7804 18.2674 13.7301V14.9583C18.2674 15.0928 18.3208 15.2219 18.416 15.317L19.2033 16.1042C19.5851 16.486 19.7996 17.0038 19.7996 17.5438C19.7996 18.7703 18.8053 19.7646 17.5788 19.7646H15.8642L15.3669 20.4755L15.2327 20.6673C14.525 21.6789 13.3682 22.2814 12.1337 22.2814H11.9911C10.6466 22.2814 9.41731 21.522 8.81546 20.3197L9.92429 19.7647C10.2537 20.4227 10.8718 20.8768 11.5804 21.0047C11.7145 21.0289 11.8519 21.0414 11.9911 21.0414H12.1337C12.2793 21.0414 12.4233 21.0289 12.5643 21.0047C13.227 20.8908 13.8244 20.5171 14.2166 19.9565L14.3508 19.7647H13.9424H12.4407H11.7129H9.92429V19.7646H6.69782C5.47131 19.7646 4.47702 18.7703 4.47702 17.5438C4.47702 17.0038 4.69154 16.486 5.07337 16.1042L5.86068 15.317C5.95583 15.2219 6.00928 15.0928 6.00928 14.9583V10.5731Z" fill="#003B46"/>
<ellipse id="Ellipse 18" cx="17.293" cy="6.94184" rx="4.29228" ry="4.29194" fill="#F67B09"/>
</g>
</svg>
