<svg width="20" height="20" viewBox="0 0 20 20" fill="none" xmlns="http://www.w3.org/2000/svg">
<g id="Account icon">
<path id="Union" fill-rule="evenodd" clip-rule="evenodd" d="M13.875 5.48726C16.1914 7.80364 16.1914 11.5592 13.875 13.8756C11.5585 16.192 7.80283 16.192 5.48638 13.8756C3.16993 11.5592 3.16993 7.80364 5.48638 5.48726C7.80283 3.17089 11.5585 3.17089 13.875 5.48726ZM15.1822 14.2983C17.5556 11.4767 17.4145 7.25892 14.7589 4.6034C11.9543 1.79887 7.4071 1.79887 4.60248 4.6034C1.79787 7.40792 1.79787 11.955 4.60248 14.7595C7.2583 17.4152 11.4767 17.5561 14.2983 15.1822L16.4331 17.3169C16.6772 17.561 17.0729 17.561 17.317 17.3169C17.5611 17.0728 17.5611 16.6771 17.317 16.433L15.1822 14.2983Z" fill="#003B46"/>
</g>
</svg>
