<svg width="33" height="29" viewBox="0 0 33 29" fill="none" xmlns="http://www.w3.org/2000/svg">
<g id="Union">
<mask id="path-1-inside-1_2031_56214" fill="white">
<path fill-rule="evenodd" clip-rule="evenodd" d="M9.4281 3.30727C10.0037 5.67051 8.49972 8.08593 6.0688 8.70227C3.63788 9.31862 1.2006 7.90249 0.62497 5.53926C0.0493414 3.17603 1.55335 0.760607 3.98427 0.144261C6.41519 -0.472085 8.85247 0.944045 9.4281 3.30727ZM9.24941 9.21944L6.01907 20.2065C3.26484 19.6961 1.00799 17.4442 0.673341 14.4393L0.511923 12.9898C0.365027 11.6708 1.64421 10.5668 2.96565 10.6137C4.80802 10.6792 7.08754 10.3745 9.24941 9.21944ZM32.327 14.4393C31.9446 17.8729 29.0525 20.3233 25.7763 20.3158L22.3387 8.6265C22.6656 8.67024 22.9886 8.77858 23.2806 8.95332C25.5784 10.3281 28.0581 10.684 30.0347 10.6137C31.3562 10.5668 32.6353 11.6708 32.4884 12.9898L32.327 14.4393ZM23.5723 3.30746C22.9967 5.67069 24.5007 8.08612 26.9316 8.70246C29.3625 9.31881 31.7998 7.90268 32.3754 5.53945C32.9511 3.17622 31.4471 0.760797 29.0161 0.144451C26.5852 -0.471895 24.1479 0.944234 23.5723 3.30746ZM21.3796 7.86703C21.3796 10.9663 18.917 13.4787 15.8793 13.4787C12.8416 13.4787 10.3791 10.9663 10.3791 7.86703C10.3791 4.76779 12.8416 2.25537 15.8793 2.25537C18.917 2.25537 21.3796 4.76779 21.3796 7.86703ZM24.0387 20.217L23.5667 16.3644C23.4027 15.0258 21.8779 14.3048 20.6099 14.764C17.1034 16.0337 13.6522 15.5602 11.1728 14.7068C9.89762 14.2679 8.35612 15.0258 8.19212 16.3644L7.72011 20.217C7.18455 24.5883 10.5953 28.4424 14.9993 28.4424H16.7595C21.1635 28.4424 24.5743 24.5883 24.0387 20.217Z"/>
</mask>
<path d="M6.0688 8.70227L5.82303 7.73295L5.82303 7.73295L6.0688 8.70227ZM9.4281 3.30727L10.3997 3.07062L9.4281 3.30727ZM0.62497 5.53926L-0.346624 5.77592L0.62497 5.53926ZM3.98427 0.144261L3.7385 -0.825068L3.98427 0.144261ZM6.01907 20.2065L5.83684 21.1898L6.72397 21.3542L6.97847 20.4886L6.01907 20.2065ZM9.24941 9.21944L10.2088 9.50151L10.8814 7.21372L8.77818 8.33743L9.24941 9.21944ZM0.673341 14.4393L1.6672 14.3286L0.673341 14.4393ZM0.511923 12.9898L-0.481932 13.1005L0.511923 12.9898ZM2.96565 10.6137L3.00116 9.61435H3.00116L2.96565 10.6137ZM25.7763 20.3158L24.8169 20.5979L25.0275 21.3141L25.774 21.3158L25.7763 20.3158ZM32.327 14.4393L33.3209 14.5499V14.5499L32.327 14.4393ZM22.3387 8.6265L22.4714 7.63534L20.9449 7.43107L21.3794 8.90863L22.3387 8.6265ZM23.2806 8.95332L22.7672 9.81146L23.2806 8.95332ZM30.0347 10.6137L30.0702 11.6131L30.0702 11.6131L30.0347 10.6137ZM32.4884 12.9898L33.4823 13.1005V13.1005L32.4884 12.9898ZM26.9316 8.70246L27.1774 7.73314V7.73314L26.9316 8.70246ZM23.5723 3.30746L22.6007 3.07081L23.5723 3.30746ZM32.3754 5.53945L31.4038 5.30279V5.30279L32.3754 5.53945ZM29.0161 0.144451L28.7704 1.11378L29.0161 0.144451ZM23.5667 16.3644L24.5593 16.2428L23.5667 16.3644ZM24.0387 20.217L23.0461 20.3386L24.0387 20.217ZM20.6099 14.764L20.2694 13.8237L20.6099 14.764ZM11.1728 14.7068L10.8474 15.6524H10.8474L11.1728 14.7068ZM8.19212 16.3644L9.1847 16.486L8.19212 16.3644ZM7.72011 20.217L6.72753 20.0954L7.72011 20.217ZM6.31457 9.6716C9.24953 8.92746 11.1118 5.99428 10.3997 3.07062L8.45651 3.54393C8.89563 5.34673 7.74991 7.2444 5.82303 7.73295L6.31457 9.6716ZM-0.346624 5.77592C0.36744 8.70749 3.3733 10.4173 6.31457 9.6716L5.82303 7.73295C3.90247 8.21989 2.03376 7.09749 1.59656 5.3026L-0.346624 5.77592ZM3.7385 -0.825068C0.803542 -0.0809251 -1.05876 2.85225 -0.346624 5.77592L1.59656 5.3026C1.15744 3.49981 2.30316 1.60214 4.23004 1.11359L3.7385 -0.825068ZM10.3997 3.07062C9.68563 0.139045 6.67977 -1.57081 3.7385 -0.825068L4.23004 1.11359C6.1506 0.626641 8.01931 1.74904 8.45651 3.54393L10.3997 3.07062ZM6.97847 20.4886L10.2088 9.50151L8.29002 8.93736L5.05968 19.9245L6.97847 20.4886ZM-0.320515 14.5499C0.0646355 18.0084 2.66501 20.6019 5.83684 21.1898L6.20131 19.2233C3.86467 18.7902 1.95134 16.88 1.6672 14.3286L-0.320515 14.5499ZM-0.481932 13.1005L-0.320515 14.5499L1.6672 14.3286L1.50578 12.8791L-0.481932 13.1005ZM3.00116 9.61435C2.05812 9.58084 1.15409 9.95411 0.506251 10.5581C-0.146882 11.167 -0.596635 12.0705 -0.481932 13.1005L1.50578 12.8791C1.47359 12.5901 1.58998 12.2821 1.87007 12.021C2.15545 11.7549 2.55174 11.5996 2.93013 11.6131L3.00116 9.61435ZM8.77818 8.33743C6.80826 9.3899 4.71357 9.67521 3.00116 9.61435L2.93013 11.6131C4.90248 11.6832 7.36681 11.359 9.72064 10.1014L8.77818 8.33743ZM25.774 21.3158C29.5495 21.3244 32.8808 18.5016 33.3209 14.5499L31.3332 14.3286C31.0085 17.2441 28.5554 19.3221 25.7786 19.3158L25.774 21.3158ZM21.3794 8.90863L24.8169 20.5979L26.7357 20.0337L23.2981 8.34437L21.3794 8.90863ZM23.7941 8.09519C23.3799 7.84742 22.9264 7.69623 22.4714 7.63534L22.2061 9.61767C22.4048 9.64426 22.5972 9.70974 22.7672 9.81146L23.7941 8.09519ZM29.9992 9.61435C28.161 9.67968 25.8851 9.34628 23.7941 8.09519L22.7672 9.81146C25.2717 11.3099 27.9553 11.6883 30.0702 11.6131L29.9992 9.61435ZM33.4823 13.1005C33.597 12.0705 33.1472 11.167 32.4941 10.5581C31.8463 9.95411 30.9422 9.58084 29.9992 9.61435L30.0702 11.6131C30.4486 11.5996 30.8449 11.7549 31.1303 12.021C31.4104 12.2821 31.5268 12.5901 31.4946 12.8791L33.4823 13.1005ZM33.3209 14.5499L33.4823 13.1005L31.4946 12.8791L31.3332 14.3286L33.3209 14.5499ZM27.1774 7.73314C25.2505 7.24459 24.1048 5.34692 24.5439 3.54412L22.6007 3.07081C21.8886 5.99447 23.7509 8.92765 26.6858 9.67179L27.1774 7.73314ZM31.4038 5.30279C30.9667 7.09768 29.0979 8.22008 27.1774 7.73314L26.6858 9.67179C29.6271 10.4175 32.633 8.70768 33.347 5.77611L31.4038 5.30279ZM28.7704 1.11378C30.6973 1.60233 31.843 3.5 31.4038 5.30279L33.347 5.77611C34.0592 2.85244 32.1969 -0.0807357 29.2619 -0.824878L28.7704 1.11378ZM24.5439 3.54412C24.9811 1.74923 26.8498 0.626831 28.7704 1.11378L29.2619 -0.824878C26.3206 -1.57062 23.3148 0.139235 22.6007 3.07081L24.5439 3.54412ZM15.8793 14.4787C19.4881 14.4787 22.3796 11.4995 22.3796 7.86703H20.3796C20.3796 10.433 18.3459 12.4787 15.8793 12.4787V14.4787ZM9.37909 7.86703C9.37909 11.4995 12.2705 14.4787 15.8793 14.4787V12.4787C13.4127 12.4787 11.3791 10.433 11.3791 7.86703H9.37909ZM15.8793 1.25537C12.2705 1.25537 9.37909 4.23451 9.37909 7.86703H11.3791C11.3791 5.30108 13.4127 3.25537 15.8793 3.25537V1.25537ZM22.3796 7.86703C22.3796 4.23451 19.4881 1.25537 15.8793 1.25537V3.25537C18.3459 3.25537 20.3796 5.30108 20.3796 7.86703H22.3796ZM22.5741 16.486L23.0461 20.3386L25.0313 20.0954L24.5593 16.2428L22.5741 16.486ZM20.9504 15.7042C21.7648 15.4093 22.5066 15.9352 22.5741 16.486L24.5593 16.2428C24.2988 14.1164 21.991 13.2003 20.2694 13.8237L20.9504 15.7042ZM10.8474 15.6524C13.4726 16.5559 17.1683 17.0738 20.9504 15.7042L20.2694 13.8237C17.0385 14.9937 13.8319 14.5644 11.4983 13.7612L10.8474 15.6524ZM9.1847 16.486C9.22044 16.1943 9.40701 15.9273 9.73692 15.7511C10.0738 15.5712 10.49 15.5294 10.8474 15.6524L11.4983 13.7612C10.5804 13.4453 9.58832 13.563 8.79462 13.987C7.99398 14.4147 7.3278 15.1959 7.19954 16.2428L9.1847 16.486ZM8.71269 20.3386L9.1847 16.486L7.19954 16.2428L6.72753 20.0954L8.71269 20.3386ZM14.9993 27.4424C11.1959 27.4424 8.25015 24.1138 8.71269 20.3386L6.72753 20.0954C6.11894 25.0627 9.99482 29.4424 14.9993 29.4424V27.4424ZM16.7595 27.4424H14.9993V29.4424H16.7595V27.4424ZM23.0461 20.3386C23.5087 24.1138 20.563 27.4424 16.7595 27.4424V29.4424C21.764 29.4424 25.6399 25.0627 25.0313 20.0954L23.0461 20.3386Z" fill="#36575E" mask="url(#path-1-inside-1_2031_56214)"/>
</g>
</svg>
