<svg width="20" height="20" viewBox="0 0 20 20" fill="none" xmlns="http://www.w3.org/2000/svg">
<path fill-rule="evenodd" clip-rule="evenodd" d="M15.386 9.90416C15.386 12.8157 12.9923 15.2083 9.99953 15.2083C8.84786 15.2083 7.78491 14.854 6.91294 14.2522L14.4033 6.84998C15.0231 7.71565 15.386 8.77057 15.386 9.90416ZM15.5527 5.71413C16.4518 6.87607 16.986 8.32847 16.986 9.90416C16.986 13.7172 13.858 16.8083 9.99953 16.8083C8.40507 16.8083 6.93536 16.2805 5.75957 15.392L4.27405 16.86C3.95979 17.1706 3.45327 17.1676 3.1427 16.8533C2.83214 16.539 2.83514 16.0325 3.1494 15.7219L4.60125 14.2872C3.60891 13.095 3.01309 11.5683 3.01309 9.90416C3.01309 6.0911 6.14103 3 9.99953 3C11.6835 3 13.2284 3.5888 14.4348 4.56945L15.6377 3.38076C15.9519 3.07019 16.4584 3.07319 16.769 3.38746C17.0796 3.70172 17.0766 4.20825 16.7623 4.51881L15.5527 5.71413ZM5.745 13.1569L13.2881 5.7026C12.3807 5.01219 11.2417 4.6 9.99953 4.6C7.00676 4.6 4.61309 6.99257 4.61309 9.90416C4.61309 11.1259 5.0346 12.2564 5.745 13.1569Z" fill="#36575E"/>
</svg>
