<svg width="20" height="20" viewBox="0 0 20 20" fill="none" xmlns="http://www.w3.org/2000/svg">
<path d="M2.00005 10C2.00005 5.58172 5.58177 2 10 2C14.4183 2 18 5.58172 18 10C18 14.4183 14.4183 18 10 18C7.86963 18 5.93371 17.1672 4.50005 15.8095" stroke="#003B46" stroke-width="1.6" stroke-linecap="round"/>
<path fill-rule="evenodd" clip-rule="evenodd" d="M10.8014 7.5C10.8014 7.05817 10.4432 6.7 10.0014 6.7C9.55958 6.7 9.20141 7.05817 9.20141 7.5V9.20183H7.49999C7.05816 9.20183 6.69999 9.56 6.69999 10.0018C6.69999 10.4437 7.05816 10.8018 7.49999 10.8018H9.20141V12.5039C9.20141 12.9457 9.55958 13.3039 10.0014 13.3039C10.4432 13.3039 10.8014 12.9457 10.8014 12.5039V10.8018H12.5039C12.9457 10.8018 13.3039 10.4437 13.3039 10.0018C13.3039 9.56 12.9457 9.20183 12.5039 9.20183H10.8014V7.5Z" fill="#003B46"/>
</svg>
