<svg width="24" height="24" viewBox="0 0 24 24" fill="none" xmlns="http://www.w3.org/2000/svg">
<circle cx="12" cy="12" r="9.79592" fill="#C0DEE5"/>
<circle cx="12" cy="12" r="11.5102" stroke="#61A4AD" stroke-width="0.979592"/>
<mask id="mask0_2262_7591" style="mask-type:alpha" maskUnits="userSpaceOnUse" x="2" y="2" width="20" height="20">
<circle cx="12" cy="12" r="9.79592" fill="#C0DEE5"/>
</mask>
<g mask="url(#mask0_2262_7591)">
<path d="M7.61607 9.48925L8.03216 9.47538L7.61607 9.48925ZM16.5467 9.48926L16.9628 9.50313L16.5467 9.48926ZM16.5022 10.8261L16.0861 10.8122L16.0673 11.3736L16.61 11.2282L16.5022 10.8261ZM17.5787 11.8336L17.1699 11.7548V11.7548L17.5787 11.8336ZM17.4718 12.388L17.8806 12.4669V12.4669L17.4718 12.388ZM16.5776 13.3163L16.6716 13.7219L16.5776 13.3163ZM15.9228 13.4681L15.8288 13.0626L15.5658 13.1235L15.5142 13.3885L15.9228 13.4681ZM8.29843 13.7076L8.70124 13.6024L8.63763 13.3589L8.39248 13.3021L8.29843 13.7076ZM7.66688 13.5612L7.76093 13.1556H7.76093L7.66688 13.5612ZM6.77264 12.6329L6.36385 12.7118V12.7118L6.77264 12.6329ZM6.66572 12.0785L7.07451 11.9997L6.66572 12.0785ZM7.66825 11.0545L7.59552 11.4644L8.10147 11.5542L8.08435 11.0406L7.66825 11.0545ZM4.43682 23.0899L4.02352 23.0398L4.43682 23.0899ZM8.16202 18.6102L8.28664 19.0075H8.28665L8.16202 18.6102ZM3.67347 29.3876L3.26017 29.3375L3.20363 29.8039H3.67347V29.3876ZM20.496 29.3876V29.8039H20.9659L20.9093 29.3375L20.496 29.3876ZM19.7327 23.0899L19.3194 23.14L19.7327 23.0899ZM16.0075 18.6102L15.8829 19.0075H15.8829L16.0075 18.6102ZM15.0796 18.4071L15.1323 17.9942L15.0796 18.4071ZM14.9731 18.3935L14.9204 18.8065L14.9731 18.3935ZM9.1964 18.3935L9.24912 18.8065H9.24912L9.1964 18.3935ZM9.08988 18.4071L9.03716 17.9942H9.03716L9.08988 18.4071ZM12.0814 4.45623C9.32017 4.45623 7.10796 6.74343 7.19997 9.50313L8.03216 9.47538C7.95583 7.18616 9.79091 5.28889 12.0814 5.28889V4.45623ZM16.9628 9.50313C17.0548 6.74343 14.8426 4.45623 12.0814 4.45623V5.28889C14.3719 5.28889 16.207 7.18616 16.1306 9.47538L16.9628 9.50313ZM16.9183 10.8399L16.9628 9.50313L16.1306 9.47538L16.0861 10.8122L16.9183 10.8399ZM17.9875 11.9124C18.1701 10.9657 17.2937 10.1829 16.3944 10.4239L16.61 11.2282C16.9256 11.1436 17.2341 11.4222 17.1699 11.7548L17.9875 11.9124ZM17.8806 12.4669L17.9875 11.9124L17.1699 11.7548L17.063 12.3092L17.8806 12.4669ZM16.6716 13.7219C17.2872 13.5791 17.7609 13.0873 17.8806 12.4669L17.063 12.3092C17.0057 12.6066 16.7786 12.8423 16.4835 12.9107L16.6716 13.7219ZM16.0169 13.8737L16.6716 13.7219L16.4835 12.9107L15.8288 13.0626L16.0169 13.8737ZM12.0833 17.0439C14.1829 17.0439 15.9419 15.5468 16.3315 13.5478L15.5142 13.3885C15.1997 15.0024 13.7783 16.2113 12.0833 16.2113V17.0439ZM7.89562 13.8129C8.38276 15.6775 10.0776 17.0439 12.0833 17.0439V16.2113C10.4643 16.2113 9.09464 15.1083 8.70124 13.6024L7.89562 13.8129ZM7.57284 13.9668L8.20439 14.1132L8.39248 13.3021L7.76093 13.1556L7.57284 13.9668ZM6.36385 12.7118C6.4835 13.3322 6.95729 13.824 7.57284 13.9668L7.76093 13.1556C7.46588 13.0872 7.23879 12.8515 7.18143 12.5541L6.36385 12.7118ZM6.25692 12.1573L6.36385 12.7118L7.18143 12.5541L7.07451 11.9997L6.25692 12.1573ZM7.74099 10.6446C6.88198 10.4922 6.08157 11.2481 6.25692 12.1573L7.07451 11.9997C7.01317 11.6816 7.29356 11.4108 7.59552 11.4644L7.74099 10.6446ZM7.19997 9.50313L7.25216 11.0684L8.08435 11.0406L8.03216 9.47538L7.19997 9.50313ZM4.85012 23.14C5.08441 21.207 6.42883 19.5903 8.28664 19.0075L8.0374 18.213C5.86746 18.8938 4.29717 20.7821 4.02352 23.0398L4.85012 23.14ZM4.08677 29.4377L4.85012 23.14L4.02352 23.0398L3.26017 29.3375L4.08677 29.4377ZM20.496 28.9712H3.67347V29.8039H20.496V28.9712ZM19.3194 23.14L20.0827 29.4377L20.9093 29.3375L20.146 23.0398L19.3194 23.14ZM15.8829 19.0075C17.7407 19.5903 19.0851 21.207 19.3194 23.14L20.146 23.0398C19.8723 20.7821 18.302 18.8938 16.1321 18.213L15.8829 19.0075ZM15.0269 18.8201C15.3172 18.8572 15.6036 18.9199 15.8829 19.0075L16.1321 18.213C15.806 18.1107 15.4714 18.0375 15.1323 17.9942L15.0269 18.8201ZM14.9204 18.8065L15.0269 18.8201L15.1323 17.9942L15.0258 17.9806L14.9204 18.8065ZM9.24912 18.8065C11.1319 18.5662 13.0376 18.5662 14.9204 18.8065L15.0258 17.9806C13.073 17.7313 11.0965 17.7313 9.14368 17.9806L9.24912 18.8065ZM9.1426 18.8201L9.24912 18.8065L9.14368 17.9806L9.03716 17.9942L9.1426 18.8201ZM8.28665 19.0075C8.56587 18.9199 8.85231 18.8572 9.1426 18.8201L9.03716 17.9942C8.6981 18.0375 8.36354 18.1107 8.0374 18.213L8.28665 19.0075Z" fill="#003B46"/>
</g>
</svg>
