<svg width="20" height="20" viewBox="0 0 20 20" fill="none" xmlns="http://www.w3.org/2000/svg">
<path fill-rule="evenodd" clip-rule="evenodd" d="M8.28496 3.33467C8.28496 2.89284 8.64313 2.53467 9.08496 2.53467H11.6786C12.1204 2.53467 12.4786 2.89284 12.4786 3.33467C12.4786 3.7765 12.1204 4.13467 11.6786 4.13467H9.08496C8.64313 4.13467 8.28496 3.7765 8.28496 3.33467ZM6.78229 7.20198C7.22374 7.18363 7.59648 7.52662 7.61482 7.96807L7.89463 14.7009C7.90163 14.8694 8.04022 15.0023 8.20881 15.0023H10.3818H12.5548C12.7233 15.0023 12.8619 14.8694 12.8689 14.7009L13.1488 7.96807C13.1671 7.52662 13.5398 7.18363 13.9813 7.20198C14.4227 7.22033 14.7657 7.59306 14.7474 8.03451L14.4675 14.7674C14.4249 15.7929 13.5811 16.6023 12.5548 16.6023H10.3818H8.20881C7.18241 16.6023 6.33863 15.7929 6.29601 14.7674L6.0162 8.03451C5.99786 7.59306 6.34085 7.22032 6.78229 7.20198ZM4.8916 5.09282C4.44977 5.09282 4.0916 5.45099 4.0916 5.89282C4.0916 6.33465 4.44977 6.69282 4.8916 6.69282H15.5904C16.0322 6.69282 16.3904 6.33465 16.3904 5.89282C16.3904 5.45099 16.0322 5.09282 15.5904 5.09282H4.8916Z" fill="#E40000"/>
</svg>
