<svg width="20" height="20" viewBox="0 0 20 20" fill="none" xmlns="http://www.w3.org/2000/svg">
<g id="icon">
<circle id="Ellipse 120" cx="10.25" cy="10" r="8" fill="#A6A6A6"/>
<path id="Union" fill-rule="evenodd" clip-rule="evenodd" d="M13.1795 9.89601C13.1795 11.4894 11.8817 12.7878 10.2723 12.7878C9.67665 12.7878 9.12363 12.6099 8.66331 12.305L12.6918 8.29236C13.0001 8.75171 13.1795 9.30347 13.1795 9.89601ZM13.4133 7.57376C13.8973 8.22226 14.1837 9.02582 14.1837 9.89601C14.1837 12.0477 12.4325 13.792 10.2723 13.792C9.39871 13.792 8.59198 13.5067 7.94093 13.0246L7.10642 13.8558C6.90995 14.0515 6.59205 14.0509 6.39636 13.8544C6.20067 13.6579 6.20129 13.34 6.39776 13.1443L7.21682 12.3285C6.68124 11.6619 6.36095 10.8162 6.36095 9.89601C6.36095 7.7443 8.11214 6 10.2723 6C11.1962 6 12.0452 6.31902 12.7144 6.8525L13.3894 6.18023C13.5858 5.98454 13.9037 5.98517 14.0994 6.18163C14.2951 6.3781 14.2945 6.696 14.098 6.89169L13.4133 7.57376ZM7.93386 11.6143L11.9967 7.56743C11.5147 7.21359 10.9187 7.00418 10.2723 7.00418C8.663 7.00418 7.36513 8.30262 7.36513 9.89601C7.36513 10.5387 7.57628 11.1334 7.93386 11.6143Z" fill="white"/>
</g>
</svg>
