<svg width="20" height="20" viewBox="0 0 20 20" fill="none" xmlns="http://www.w3.org/2000/svg">
<g id="email icon">
<path id="Union" fill-rule="evenodd" clip-rule="evenodd" d="M3.6 4.68H16.4C16.5294 4.68 16.6525 4.7067 16.7642 4.75489L11.2298 10.2892C10.757 10.7621 9.99709 10.7832 9.49873 10.3373L3.252 4.7481C3.35935 4.7042 3.47685 4.68 3.6 4.68ZM2.76124 5.22145C2.70905 5.33691 2.68 5.46506 2.68 5.6V14.4C2.68 14.9081 3.0919 15.32 3.6 15.32H16.4C16.9081 15.32 17.32 14.9081 17.32 14.4V5.6C17.32 5.47058 17.2933 5.3474 17.245 5.23569L11.7107 10.7701C10.9826 11.4981 9.81262 11.5306 9.04531 10.844L2.76124 5.22145ZM2 5.6C2 4.71635 2.71634 4 3.6 4H16.4C17.2837 4 18 4.71634 18 5.6V14.4C18 15.2837 17.2837 16 16.4 16H3.6C2.71634 16 2 15.2837 2 14.4V5.6Z" fill="#36575E"/>
</g>
</svg>
