<svg width="32" height="32" viewBox="0 0 32 32" fill="none" xmlns="http://www.w3.org/2000/svg">
<path fill-rule="evenodd" clip-rule="evenodd" d="M22.5582 10.4422C22.8022 10.1982 22.8022 9.80241 22.5582 9.55832C22.3141 9.31423 21.9184 9.31423 21.6743 9.55832L16.6163 14.6169L11.4419 9.44202C11.1979 9.19793 10.8022 9.19793 10.5581 9.44202C10.314 9.68611 10.314 10.0819 10.5581 10.326L15.7324 15.5008L10.5594 20.6744C10.3154 20.9185 10.3154 21.3142 10.5594 21.5583C10.8035 21.8024 11.1992 21.8024 11.4433 21.5583L16.6163 16.3848L21.673 21.442C21.9171 21.6861 22.3128 21.6861 22.5569 21.442C22.8009 21.1979 22.8009 20.8022 22.5569 20.5581L17.5001 15.5008L22.5582 10.4422Z" fill="#003B46"/>
</svg>
