<svg width="20" height="20" viewBox="0 0 20 20" fill="none" xmlns="http://www.w3.org/2000/svg">
<g id="Logout icon">
<path id="Ellipse 8" d="M12 6.36906C11.1504 5.52047 10.0032 5 8.74074 5C6.1225 5 4 7.23858 4 10C4 12.7614 6.1225 15 8.74074 15C10.0032 15 11.1504 14.4795 12 13.6309" stroke="#003B46" stroke-width="1.25" stroke-linecap="round"/>
<path id="Union" fill-rule="evenodd" clip-rule="evenodd" d="M17.4636 9.58086C17.5639 9.69173 17.625 9.83873 17.625 10C17.625 10.0002 17.625 10.0004 17.625 10.0006C17.6253 10.1391 17.5796 10.2778 17.488 10.3922L15.488 12.8922C15.2724 13.1618 14.8791 13.2055 14.6096 12.9899C14.34 12.7742 14.2963 12.3809 14.512 12.1114L15.7011 10.625L9 10.625C8.65482 10.625 8.375 10.3452 8.375 10C8.375 9.65482 8.65482 9.375 9 9.375L15.6982 9.375L14.512 7.89225C14.2963 7.62271 14.34 7.2294 14.6096 7.01377C14.8791 6.79814 15.2724 6.84184 15.488 7.11138L17.4636 9.58086Z" fill="#003B46"/>
</g>
</svg>
