<svg width="27" height="20" viewBox="0 0 27 20" fill="none" xmlns="http://www.w3.org/2000/svg">
<rect width="27" height="20" fill="#1E1E1E"/>
<g id="User to Admin switch">
<rect x="-48.5" y="-36.5" width="1281" height="833" fill="white"/>
<rect x="-48.5" y="-36.5" width="1281" height="833" stroke="#1E1E1E"/>
<g id="Menu Container" filter="url(#filter0_d_711_14769)">
<rect x="-48" y="-36" width="229" height="832" fill="#FDFDFD"/>
</g>
<g id="Navigation">
<g id="Logo">
<g id="Frame 321">
<g id="logo">
<g id="Placeholder logo" opacity="0.4">
<g id="Union" filter="url(#filter1_d_711_14769)">
<path fill-rule="evenodd" clip-rule="evenodd" d="M20.5804 3.90621C21.2764 3.67395 22.3951 3.30069 23.7212 2.49992C24.6196 4.87244 25.1144 8.95952 24.1501 11.3004C23.6272 12.6258 22.6085 13.6426 21.3709 14.1907L21.3745 14.1932L13.1327 17.8224C12.3812 18.1533 11.5006 17.9169 11.0159 17.2541L5.88155 10.2329L5.88232 10.2328C4.83515 8.95904 4.39732 7.21575 4.85665 5.50149C5.61267 2.67998 8.51284 1.00557 11.3344 1.7616C13.3858 2.31127 14.8308 3.99436 15.1762 5.95658C16.3565 4.54915 18.2276 3.81449 20.12 4.13908C20.1271 4.11185 20.1345 4.08482 20.1421 4.05798C20.2598 4.01319 20.407 3.96407 20.5804 3.90621Z" fill="#003B46"/>
</g>
</g>
<g id="Placeholder logo_2" opacity="0.2">
<g id="Union_2" filter="url(#filter2_d_711_14769)">
<path fill-rule="evenodd" clip-rule="evenodd" d="M22.824 8.15809C23.5031 8.17323 24.5945 8.19757 26.0004 7.91422C26.042 10.2751 25.1865 14.0188 23.5981 15.7451C22.7303 16.7191 21.536 17.2768 20.2982 17.3668L20.3006 17.3703L11.9845 17.9569C11.2262 18.0104 10.5328 17.5292 10.3175 16.8001L8.03776 9.0773L8.03878 9.07754C7.52431 7.64024 7.68759 5.98425 8.62364 4.63396C10.1642 2.41157 13.2147 1.85886 15.4371 3.39945C17.0528 4.51947 17.786 6.43753 17.474 8.25525C18.9424 7.39786 20.8025 7.34262 22.3501 8.21711C22.3647 8.19561 22.3796 8.17436 22.3946 8.15338C22.5112 8.15111 22.6548 8.15432 22.824 8.15809Z" fill="#003B46"/>
</g>
</g>
<g id="Placeholder logo_3">
<path id="Subtract" fill-rule="evenodd" clip-rule="evenodd" d="M16.3562 0.134808C15.4682 0.598197 14.6164 1.75776 14.1066 3.49113C16.3627 3.41989 21.3168 4.2036 23.0837 7.90842C23.0996 7.90407 23.1154 7.89952 23.1311 7.89477C22.7784 9.12141 22.0529 10.1902 21.0851 10.9707L21.0892 10.9721L12.8457 17.5919C12.1676 18.1364 11.2021 18.1359 10.5245 17.5907L2.56507 11.1859L2.56638 11.1854C1.01264 10.074 0 8.25448 0 6.19849C0 2.81453 2.74324 0.0712891 6.12721 0.0712891C8.58786 0.0712891 10.7097 1.52177 11.6844 3.61436C12.54 1.77751 14.2795 0.435417 16.3562 0.134808Z" fill="white"/>
<path id="Subtract_2" fill-rule="evenodd" clip-rule="evenodd" d="M16.3562 0.134807C15.4682 0.598195 14.6164 1.75776 14.1066 3.49113C16.3627 3.41989 21.3168 4.2036 23.0837 7.90842C23.0996 7.90407 23.1154 7.89952 23.1311 7.89478C22.7784 9.12141 22.0529 10.1902 21.0851 10.9707L21.0892 10.9721L12.8457 17.5919C12.1676 18.1364 11.2021 18.1359 10.5245 17.5908L2.56507 11.1859L2.56638 11.1854C1.01264 10.074 0 8.25448 0 6.19849C0 2.81453 2.74324 0.0712891 6.12721 0.0712891C8.58786 0.0712891 10.7097 1.52177 11.6844 3.61436C12.54 1.77751 14.2795 0.435415 16.3562 0.134807ZM13.8544 5.77125C13.8039 5.68379 13.7109 5.62955 13.61 5.62869C13.509 5.62782 13.4151 5.68045 13.3632 5.76704L12.8049 6.69738H5.69915C5.54176 6.69738 5.41417 6.82497 5.41417 6.98236C5.41417 7.13976 5.54176 7.26735 5.69915 7.26735H12.9663C13.0664 7.26735 13.1592 7.21483 13.2107 7.12899L13.6027 6.4756L14.4294 7.90849C14.4748 7.98731 14.5552 8.03968 14.6457 8.04942C14.7362 8.05917 14.8259 8.02511 14.8871 7.95778L15.5148 7.26735H17.5261C17.6835 7.26735 17.8111 7.13976 17.8111 6.98236C17.8111 6.82497 17.6835 6.69738 17.5261 6.69738H15.3887C15.3084 6.69738 15.2318 6.73125 15.1778 6.79066L14.728 7.28549L13.8544 5.77125ZM9.00876 8.47649C8.95678 8.38813 8.86134 8.33449 8.75883 8.33603C8.65632 8.33758 8.56254 8.39406 8.51324 8.48396L7.58339 10.1796L7.3864 9.71992C7.34149 9.61513 7.23845 9.54719 7.12445 9.54719H5.77077C5.61337 9.54719 5.48578 9.67478 5.48578 9.83218C5.48578 9.98957 5.61337 10.1172 5.77077 10.1172H6.93653L7.28999 10.9419C7.33293 11.0421 7.42927 11.109 7.53816 11.1143C7.64704 11.1196 7.74939 11.0622 7.80181 10.9667L8.77181 9.19784L9.22995 9.97667C9.28115 10.0637 9.3746 10.1172 9.47559 10.1172H17.669C17.8263 10.1172 17.9539 9.98957 17.9539 9.83218C17.9539 9.67478 17.8263 9.54719 17.669 9.54719H9.63859L9.00876 8.47649Z" fill="#003B46"/>
<g id="Vector 220" filter="url(#filter3_d_711_14769)">
<path d="M14.1066 3.49108C14.6765 1.55317 15.674 0.332484 16.6714 0C20.7325 1.78116 23.3924 6.00846 23.0836 7.90837C21.3167 4.20355 16.3627 3.41983 14.1066 3.49108Z" fill="#61A4AD"/>
</g>
</g>
</g>
<path id="Vector" d="M13.256 15C13.256 14.6652 13.064 14.3616 12.7654 14.184C11.814 13.3385 11.9714 13.1646 12.0887 12.6C12.206 12.0354 12.715 11.4871 13.2029 11.1282C13.4685 10.9346 13.8041 10.8491 14.136 10.8906C14.2875 10.9098 14.4415 10.9686 14.6537 11.0754C14.8055 11.1544 14.9759 11.1953 15.1489 11.1945C15.322 11.1937 15.492 11.151 15.6429 11.0706C15.7916 10.9865 15.9154 10.8679 16.0026 10.7259C16.0899 10.5839 16.1377 10.4232 16.1416 10.2588C16.1505 10.0308 16.1738 9.8748 16.2319 9.741C16.2954 9.59531 16.3884 9.46293 16.5057 9.35143C16.623 9.23994 16.7623 9.15151 16.9156 9.0912C17.1473 9 17.4415 9 18.0299 9C18.6182 9 18.9124 9 19.1441 9.0912C19.2974 9.15151 19.4367 9.23994 19.554 9.35143C19.6713 9.46293 19.7644 9.59531 19.8278 9.741C19.8865 9.8748 19.9092 10.0308 19.9181 10.2588C19.922 10.4232 19.9698 10.5839 20.0571 10.7259C20.1443 10.8679 20.2681 10.9865 20.4168 11.0706C20.5677 11.1509 20.7375 11.1935 20.9105 11.1943C21.0834 11.1952 21.2537 11.1542 21.4054 11.0754C21.6182 10.9686 21.7716 10.9098 21.9231 10.8906C22.0875 10.87 22.2546 10.8804 22.4148 10.9211C22.575 10.9619 22.7252 11.0323 22.8568 11.1282C23.0554 11.2738 23.2024 11.5152 23.4965 11.9983L23.4976 12L23.4986 12.0018C23.7915 12.4848 23.9383 12.7269 23.971 12.963C23.9927 13.1193 23.9818 13.2781 23.9389 13.4303C23.896 13.5826 23.822 13.7253 23.721 13.8504C23.6276 13.9656 23.4969 14.0622 23.2943 14.1834C22.9957 14.3616 22.8038 14.6652 22.8038 15.0006C22.8061 15.165 22.8523 15.3261 22.9381 15.4688C24.2458 16.5697 24.2383 16.7805 23.4969 18L23.4955 18.0024C23.2023 18.485 23.0553 18.7268 22.8568 18.8718C22.5912 19.0654 22.2556 19.1509 21.9237 19.1094C21.7722 19.0902 21.6182 19.0314 21.4061 18.9246C21.2543 18.8456 21.0838 18.8047 20.9108 18.8055C20.7377 18.8063 20.5678 18.849 20.4168 18.9294C20.1119 19.0968 19.9307 19.4064 19.9181 19.7412C19.9092 19.9692 19.8859 20.1252 19.8278 20.259C19.7644 20.4047 19.6713 20.5371 19.554 20.6486C19.4367 20.7601 19.2974 20.8485 19.1441 20.9088C18.9124 21 18.6182 21 18.0299 21C17.4415 21 17.1473 21 16.9156 20.9088C16.7623 20.8485 16.623 20.7601 16.5057 20.6486C16.3884 20.5371 16.2954 20.4047 16.2319 20.259C16.1732 20.1252 16.1505 19.9692 16.1416 19.7412C16.129 19.4064 15.9478 19.0974 15.6429 18.9294C15.492 18.849 15.322 18.8063 15.1489 18.8055C14.9759 18.8047 14.8055 18.8456 14.6537 18.9246C14.4415 19.0314 14.2881 19.0902 14.1366 19.1094C13.9722 19.13 13.8051 19.1196 13.6449 19.0789C13.4847 19.0381 13.3345 18.9677 13.2029 18.8718C13.0043 18.7262 12.8573 18.4848 12.5632 18.0017L12.5622 18L12.5611 17.9982C12.2682 17.5152 12.1215 17.2731 12.0887 17.037C12.067 16.8807 12.0779 16.7219 12.1208 16.5697C12.1637 16.4174 12.2377 16.2747 12.3387 16.1496C12.4315 16.0344 12.5628 15.9378 12.7654 15.816C13.064 15.6384 13.256 15.3348 13.256 15Z" fill="#FDFDFD"/>
<path id="Subtract_3" fill-rule="evenodd" clip-rule="evenodd" d="M13.6379 14.32C13.8867 14.468 14.0466 14.721 14.0466 15C14.0466 15.279 13.8867 15.532 13.6379 15.68C13.469 15.7815 13.3596 15.862 13.2822 15.958C13.1981 16.0622 13.1364 16.1812 13.1007 16.3081C13.0649 16.4349 13.0558 16.5673 13.0739 16.6975C13.1012 16.8943 13.2235 17.096 13.4676 17.4985L13.4685 17.5L13.4693 17.5015C13.7144 17.904 13.8369 18.1051 14.0024 18.2265C14.1121 18.3065 14.2373 18.3651 14.3708 18.3991C14.5043 18.433 14.6435 18.4417 14.7805 18.4245C14.9068 18.4085 15.0346 18.3595 15.2114 18.2705C15.3379 18.2047 15.4799 18.1705 15.6241 18.1712C15.7683 18.1719 15.91 18.2075 16.0358 18.2745C16.2899 18.4145 16.4408 18.672 16.4514 18.951C16.4587 19.141 16.4777 19.271 16.5266 19.3825C16.5795 19.5039 16.657 19.6142 16.7548 19.7071C16.8525 19.8001 16.9686 19.8737 17.0963 19.924C17.2894 20 17.5346 20 18.0249 20C18.5152 20 18.7604 20 18.9534 19.924C19.0812 19.8737 19.1972 19.8001 19.295 19.7071C19.3928 19.6142 19.4703 19.5039 19.5232 19.3825C19.5716 19.271 19.591 19.141 19.5984 18.951C19.6089 18.672 19.7599 18.414 20.014 18.2745C20.1398 18.2075 20.2815 18.1719 20.4257 18.1712C20.5699 18.1705 20.7119 18.2047 20.8384 18.2705C21.0152 18.3595 21.1435 18.4085 21.2698 18.4245C21.5463 18.4591 21.826 18.3878 22.0473 18.2265C22.2128 18.1057 22.3352 17.9042 22.5796 17.502L22.5808 17.5C23.1986 16.4837 23.2048 16.3081 22.1151 15.3907C22.0436 15.2717 22.0051 15.1375 22.0031 15.0005C22.0031 14.721 22.1631 14.468 22.4119 14.3195C22.5808 14.2185 22.6897 14.138 22.7675 14.042C22.8517 13.9378 22.9134 13.8188 22.9491 13.6919C22.9849 13.5651 22.994 13.4327 22.9759 13.3025C22.9486 13.1057 22.8262 12.904 22.5822 12.5015L22.5813 12.5L22.5804 12.4985C22.3353 12.096 22.2129 11.8949 22.0473 11.7735C21.9377 11.6935 21.8125 11.6349 21.679 11.6009C21.5455 11.567 21.4063 11.5583 21.2693 11.5755C21.143 11.5915 21.0152 11.6405 20.8379 11.7295C20.7114 11.7952 20.5695 11.8293 20.4254 11.8286C20.2813 11.8279 20.1397 11.7924 20.014 11.7255C19.8901 11.6555 19.7869 11.5566 19.7142 11.4383C19.6415 11.3199 19.6017 11.186 19.5984 11.049C19.591 10.859 19.5721 10.729 19.5232 10.6175C19.4703 10.4961 19.3928 10.3858 19.295 10.2929C19.1972 10.1999 19.0812 10.1263 18.9534 10.076C18.7604 10 18.5152 10 18.0249 10C17.5346 10 17.2894 10 17.0963 10.076C16.9686 10.1263 16.8525 10.1999 16.7548 10.2929C16.657 10.3858 16.5795 10.4961 16.5266 10.6175C16.4782 10.729 16.4587 10.859 16.4514 11.049C16.4481 11.186 16.4082 11.3199 16.3355 11.4383C16.2628 11.5566 16.1597 11.6555 16.0358 11.7255C15.91 11.7925 15.7683 11.8281 15.6241 11.8288C15.4799 11.8294 15.3379 11.7953 15.2114 11.7295C15.0346 11.6405 14.9063 11.5915 14.78 11.5755C14.5034 11.5409 14.2238 11.6122 14.0024 11.7735C13.5958 12.0726 13.1716 12.5295 13.0739 13C13.0648 13.0438 13.0554 13.0848 13.0465 13.1237C12.9597 13.5024 12.9188 13.681 13.6379 14.32ZM20 14.9999C20 16.1044 19.1046 16.9999 18 16.9999C16.8955 16.9999 16 16.1044 16 14.9999C16 13.8953 16.8955 12.9999 18 12.9999C19.1046 12.9999 20 13.8953 20 14.9999Z" fill="#003B46"/>
</g>
</g>
</g>
</g>
<defs>
<filter id="filter0_d_711_14769" x="-60" y="-44" width="253" height="856" filterUnits="userSpaceOnUse" color-interpolation-filters="sRGB">
<feFlood flood-opacity="0" result="BackgroundImageFix"/>
<feColorMatrix in="SourceAlpha" type="matrix" values="0 0 0 0 0 0 0 0 0 0 0 0 0 0 0 0 0 0 127 0" result="hardAlpha"/>
<feOffset dy="4"/>
<feGaussianBlur stdDeviation="6"/>
<feComposite in2="hardAlpha" operator="out"/>
<feColorMatrix type="matrix" values="0 0 0 0 0 0 0 0 0 0 0 0 0 0 0 0 0 0 0.08 0"/>
<feBlend mode="normal" in2="BackgroundImageFix" result="effect1_dropShadow_711_14769"/>
<feBlend mode="normal" in="SourceGraphic" in2="effect1_dropShadow_711_14769" result="shape"/>
</filter>
<filter id="filter1_d_711_14769" x="4.13697" y="1.58008" width="21.0765" height="17.4671" filterUnits="userSpaceOnUse" color-interpolation-filters="sRGB">
<feFlood flood-opacity="0" result="BackgroundImageFix"/>
<feColorMatrix in="SourceAlpha" type="matrix" values="0 0 0 0 0 0 0 0 0 0 0 0 0 0 0 0 0 0 127 0" result="hardAlpha"/>
<feOffset dy="0.5382"/>
<feGaussianBlur stdDeviation="0.2691"/>
<feComposite in2="hardAlpha" operator="out"/>
<feColorMatrix type="matrix" values="0 0 0 0 0 0 0 0 0 0 0 0 0 0 0 0 0 0 0.25 0"/>
<feBlend mode="normal" in2="BackgroundImageFix" result="effect1_dropShadow_711_14769"/>
<feBlend mode="normal" in="SourceGraphic" in2="effect1_dropShadow_711_14769" result="shape"/>
</filter>
<filter id="filter2_d_711_14769" x="7.25262" y="2.52673" width="19.2475" height="16.4307" filterUnits="userSpaceOnUse" color-interpolation-filters="sRGB">
<feFlood flood-opacity="0" result="BackgroundImageFix"/>
<feColorMatrix in="SourceAlpha" type="matrix" values="0 0 0 0 0 0 0 0 0 0 0 0 0 0 0 0 0 0 127 0" result="hardAlpha"/>
<feOffset dy="0.498238"/>
<feGaussianBlur stdDeviation="0.249119"/>
<feComposite in2="hardAlpha" operator="out"/>
<feColorMatrix type="matrix" values="0 0 0 0 0 0 0 0 0 0 0 0 0 0 0 0 0 0 0.25 0"/>
<feBlend mode="normal" in2="BackgroundImageFix" result="effect1_dropShadow_711_14769"/>
<feBlend mode="normal" in="SourceGraphic" in2="effect1_dropShadow_711_14769" result="shape"/>
</filter>
<filter id="filter3_d_711_14769" x="13.5366" y="0" width="10.1413" height="9.04827" filterUnits="userSpaceOnUse" color-interpolation-filters="sRGB">
<feFlood flood-opacity="0" result="BackgroundImageFix"/>
<feColorMatrix in="SourceAlpha" type="matrix" values="0 0 0 0 0 0 0 0 0 0 0 0 0 0 0 0 0 0 127 0" result="hardAlpha"/>
<feOffset dy="0.569973"/>
<feGaussianBlur stdDeviation="0.284986"/>
<feComposite in2="hardAlpha" operator="out"/>
<feColorMatrix type="matrix" values="0 0 0 0 0 0 0 0 0 0 0 0 0 0 0 0 0 0 0.25 0"/>
<feBlend mode="normal" in2="BackgroundImageFix" result="effect1_dropShadow_711_14769"/>
<feBlend mode="normal" in="SourceGraphic" in2="effect1_dropShadow_711_14769" result="shape"/>
</filter>
</defs>
</svg>
