<svg width="80" height="58" viewBox="0 0 80 58" fill="none" xmlns="http://www.w3.org/2000/svg">
<rect width="80" height="58" fill="#1E1E1E"/>
<path d="M-556 -471H9172V-473H-556V-471ZM9173 -470V4527H9175V-470H9173ZM9172 4528H-556V4530H9172V4528ZM-557 4527V-470H-559V4527H-557ZM-556 4528C-556.552 4528 -557 4527.55 -557 4527H-559C-559 4528.66 -557.657 4530 -556 4530V4528ZM9173 4527C9173 4527.55 9172.55 4528 9172 4528V4530C9173.66 4530 9175 4528.66 9175 4527H9173ZM9172 -471C9172.55 -471 9173 -470.552 9173 -470H9175C9175 -471.657 9173.66 -473 9172 -473V-471ZM-556 -473C-557.657 -473 -559 -471.657 -559 -470H-557C-557 -470.552 -556.552 -471 -556 -471V-473Z" fill="white" fill-opacity="0.1"/>
<rect x="-297.5" y="-181.5" width="1281" height="833" fill="white"/>
<rect x="-297.5" y="-181.5" width="1281" height="833" stroke="#1E1E1E"/>
<g opacity="0.4">
<g filter="url(#filter0_d_23_2)">
<path fill-rule="evenodd" clip-rule="evenodd" d="M62.0474 11.7193C64.1356 11.0226 67.4915 9.90277 71.4699 7.50041C74.1651 14.6181 75.6498 26.8796 72.7565 33.9024C71.188 37.8786 68.1319 40.9289 64.4191 42.5733L64.4298 42.5808L39.7041 53.4684C37.4494 54.4612 34.8077 53.752 33.3536 51.7634L17.9504 30.6998L17.9527 30.6995C14.8111 26.878 13.4976 21.6481 14.8757 16.5053C17.1438 8.04062 25.8444 3.01733 34.309 5.28542C40.4633 6.93445 44.7984 11.9838 45.8347 17.8705C49.3757 13.6482 54.989 11.4442 60.6663 12.418C60.6876 12.3363 60.7097 12.2552 60.7326 12.1747C61.0855 12.0403 61.5271 11.8929 62.0474 11.7193Z" fill="#003B46"/>
</g>
</g>
<g opacity="0.2">
<g filter="url(#filter1_d_23_2)">
<path fill-rule="evenodd" clip-rule="evenodd" d="M68.7772 24.4747C70.8146 24.5202 74.0889 24.5932 78.3064 23.7431C78.4313 30.826 75.8648 42.0574 71.0995 47.2362C68.496 50.1582 64.9131 51.8312 61.1997 52.1012L61.2071 52.1116L36.2584 53.8716C33.9835 54.0321 31.9031 52.5885 31.2574 50.4012L24.4181 27.2324L24.4211 27.2331C22.8777 22.9212 23.3675 17.9531 26.1757 13.9022C30.7975 7.23496 39.9491 5.57682 46.6164 10.1987C51.4635 13.5588 53.6631 19.313 52.727 24.7662C57.1324 22.194 62.7127 22.0283 67.3555 24.6518C67.3995 24.5873 67.4441 24.5236 67.4892 24.4606C67.8387 24.4538 68.2696 24.4634 68.7772 24.4747Z" fill="#003B46"/>
</g>
</g>
<path fill-rule="evenodd" clip-rule="evenodd" d="M49.3738 0.404423C46.71 1.79461 44.1545 5.27334 42.625 10.4735C49.3935 10.2598 64.2557 12.611 69.5565 23.7256C69.6043 23.7125 69.6517 23.6989 69.6987 23.6846C68.6407 27.3646 66.4641 30.5711 63.5607 32.9124L63.573 32.9169L38.8422 52.7764C36.808 54.41 33.9112 54.4085 31.8786 52.7729L8 33.5581L8.00391 33.5565C3.34265 30.2223 0.304688 24.7638 0.304688 18.5957C0.304688 8.4437 8.53452 0.213867 18.6865 0.213867C26.0686 0.213867 32.4342 4.56536 35.3584 10.8432C37.9252 5.3326 43.1438 1.30626 49.3738 0.404423Z" fill="white"/>
<path fill-rule="evenodd" clip-rule="evenodd" d="M49.3738 0.404423C46.71 1.79461 44.1545 5.27334 42.625 10.4735C49.3935 10.2598 64.2557 12.611 69.5565 23.7256C69.6043 23.7125 69.6517 23.6989 69.6987 23.6846C68.6407 27.3646 66.4641 30.5711 63.5607 32.9124L63.573 32.9169L38.8422 52.7764C36.808 54.41 33.9112 54.4085 31.8786 52.7729L8 33.5581L8.00391 33.5565C3.34265 30.2223 0.304688 24.7638 0.304688 18.5957C0.304688 8.4437 8.53452 0.213867 18.6865 0.213867C26.0686 0.213867 32.4342 4.56536 35.3584 10.8432C37.9252 5.3326 43.1438 1.30626 49.3738 0.404423ZM41.8683 17.314C41.7169 17.0516 41.438 16.8889 41.1351 16.8863C40.8321 16.8837 40.5505 17.0416 40.3946 17.3013L38.72 20.0924H17.4023C16.9302 20.0924 16.5474 20.4752 16.5474 20.9473C16.5474 21.4195 16.9302 21.8023 17.4023 21.8023H39.2041C39.5044 21.8023 39.7827 21.6447 39.9372 21.3872L41.1133 19.4271L43.5933 23.7258C43.7297 23.9622 43.9709 24.1193 44.2423 24.1486C44.5138 24.1778 44.7829 24.0756 44.9665 23.8736L46.8495 21.8023H52.8836C53.3558 21.8023 53.7385 21.4195 53.7385 20.9473C53.7385 20.4752 53.3558 20.0924 52.8836 20.0924H46.4713C46.2304 20.0924 46.0007 20.194 45.8387 20.3722L44.4891 21.8567L41.8683 17.314ZM27.3313 25.4298C27.1754 25.1647 26.889 25.0038 26.5815 25.0084C26.274 25.013 25.9926 25.1825 25.8447 25.4522L23.0551 30.5391L22.4641 29.1601C22.3294 28.8458 22.0203 28.6419 21.6783 28.6419H17.6172C17.145 28.6419 16.7622 29.0247 16.7622 29.4969C16.7622 29.9691 17.145 30.3519 17.6172 30.3519H21.1145L22.1749 32.8261C22.3037 33.1267 22.5928 33.3275 22.9194 33.3433C23.2461 33.3591 23.5531 33.1871 23.7104 32.9004L26.6204 27.5939L27.9949 29.9304C28.1485 30.1915 28.4288 30.3519 28.7318 30.3519H53.3122C53.7843 30.3519 54.1671 29.9691 54.1671 29.4969C54.1671 29.0247 53.7843 28.6419 53.3122 28.6419H29.2208L27.3313 25.4298Z" fill="#003B46"/>
<g filter="url(#filter2_d_23_2)">
<path d="M42.625 10.4734C44.3349 4.65958 47.3273 0.997464 50.3197 0C62.503 5.34356 70.4828 18.0256 69.5565 23.7254C64.2557 12.6108 49.3935 10.2596 42.625 10.4734Z" fill="#61A4AD"/>
</g>
<defs>
<filter id="filter0_d_23_2" x="12.7174" y="4.74121" width="63.2292" height="52.4021" filterUnits="userSpaceOnUse" color-interpolation-filters="sRGB">
<feFlood flood-opacity="0" result="BackgroundImageFix"/>
<feColorMatrix in="SourceAlpha" type="matrix" values="0 0 0 0 0 0 0 0 0 0 0 0 0 0 0 0 0 0 127 0" result="hardAlpha"/>
<feOffset dy="1.61462"/>
<feGaussianBlur stdDeviation="0.807309"/>
<feComposite in2="hardAlpha" operator="out"/>
<feColorMatrix type="matrix" values="0 0 0 0 0 0 0 0 0 0 0 0 0 0 0 0 0 0 0.25 0"/>
<feBlend mode="normal" in2="BackgroundImageFix" result="effect1_dropShadow_23_2"/>
<feBlend mode="normal" in="SourceGraphic" in2="effect1_dropShadow_23_2" result="shape"/>
</filter>
<filter id="filter1_d_23_2" x="22.0639" y="7.58008" width="57.7434" height="49.2932" filterUnits="userSpaceOnUse" color-interpolation-filters="sRGB">
<feFlood flood-opacity="0" result="BackgroundImageFix"/>
<feColorMatrix in="SourceAlpha" type="matrix" values="0 0 0 0 0 0 0 0 0 0 0 0 0 0 0 0 0 0 127 0" result="hardAlpha"/>
<feOffset dy="1.49473"/>
<feGaussianBlur stdDeviation="0.747366"/>
<feComposite in2="hardAlpha" operator="out"/>
<feColorMatrix type="matrix" values="0 0 0 0 0 0 0 0 0 0 0 0 0 0 0 0 0 0 0.25 0"/>
<feBlend mode="normal" in2="BackgroundImageFix" result="effect1_dropShadow_23_2"/>
<feBlend mode="normal" in="SourceGraphic" in2="effect1_dropShadow_23_2" result="shape"/>
</filter>
<filter id="filter2_d_23_2" x="40.9151" y="0" width="30.4238" height="27.1455" filterUnits="userSpaceOnUse" color-interpolation-filters="sRGB">
<feFlood flood-opacity="0" result="BackgroundImageFix"/>
<feColorMatrix in="SourceAlpha" type="matrix" values="0 0 0 0 0 0 0 0 0 0 0 0 0 0 0 0 0 0 127 0" result="hardAlpha"/>
<feOffset dy="1.70994"/>
<feGaussianBlur stdDeviation="0.854969"/>
<feComposite in2="hardAlpha" operator="out"/>
<feColorMatrix type="matrix" values="0 0 0 0 0 0 0 0 0 0 0 0 0 0 0 0 0 0 0.25 0"/>
<feBlend mode="normal" in2="BackgroundImageFix" result="effect1_dropShadow_23_2"/>
<feBlend mode="normal" in="SourceGraphic" in2="effect1_dropShadow_23_2" result="shape"/>
</filter>
</defs>
</svg>
