<svg width="28" height="28" viewBox="0 0 28 28" fill="none" xmlns="http://www.w3.org/2000/svg">
<g id="Menu">
<path id="Union" fill-rule="evenodd" clip-rule="evenodd" d="M5.39846 9.26807C5.39846 8.92289 5.67829 8.64307 6.02346 8.64307H22.7735C23.1186 8.64307 23.3985 8.92289 23.3985 9.26807C23.3985 9.61324 23.1186 9.89307 22.7735 9.89307H6.02346C5.67829 9.89307 5.39846 9.61324 5.39846 9.26807ZM5.39844 13.5538C5.39844 13.2086 5.67826 12.9288 6.02344 12.9288H19.7734C20.1186 12.9288 20.3984 13.2086 20.3984 13.5538C20.3984 13.899 20.1186 14.1788 19.7734 14.1788H6.02344C5.67826 14.1788 5.39844 13.899 5.39844 13.5538ZM6.02344 17.2145C5.67826 17.2145 5.39844 17.4943 5.39844 17.8395C5.39844 18.1847 5.67826 18.4645 6.02344 18.4645H22.7734C23.1186 18.4645 23.3984 18.1847 23.3984 17.8395C23.3984 17.4943 23.1186 17.2145 22.7734 17.2145H6.02344Z" fill="#003B46"/>
</g>
</svg>
