<svg width="20" height="20" viewBox="0 0 20 20" fill="none" xmlns="http://www.w3.org/2000/svg">
<g id="icon">
<g id="Union">
<mask id="path-1-inside-1_1790_2999" fill="white">
<path fill-rule="evenodd" clip-rule="evenodd" d="M4.25 1C3.00736 1 2 2.00736 2 3.25V6.625C2 7.86764 3.00736 8.875 4.25 8.875H6.5C7.74264 8.875 8.75 7.86764 8.75 6.625V3.25C8.75 2.00736 7.74264 1 6.5 1H4.25ZM12.25 11C11.0074 11 10 12.0074 10 13.25V16.75C10 17.9926 11.0074 19 12.25 19H15.75C16.9926 19 18 17.9926 18 16.75V13.25C18 12.0074 16.9926 11 15.75 11H12.25ZM9.875 3.25C9.875 2.00736 10.8824 1 12.125 1H15.5C16.7426 1 17.75 2.00736 17.75 3.25V7.75C17.75 8.99264 16.7426 10 15.5 10H12.125C10.8824 10 9.875 8.99264 9.875 7.75V3.25ZM4.25 10C3.00736 10 2 11.0074 2 12.25V16.75C2 17.9926 3.00736 19 4.25 19H6.75C7.99264 19 9 17.9926 9 16.75V12.25C9 11.0074 7.99264 10 6.75 10H4.25Z"/>
</mask>
<path d="M2.675 3.25C2.675 2.38015 3.38015 1.675 4.25 1.675V0.325C2.63457 0.325 1.325 1.63457 1.325 3.25H2.675ZM2.675 6.625V3.25H1.325V6.625H2.675ZM4.25 8.2C3.38015 8.2 2.675 7.49485 2.675 6.625H1.325C1.325 8.24043 2.63457 9.55 4.25 9.55V8.2ZM6.5 8.2H4.25V9.55H6.5V8.2ZM8.075 6.625C8.075 7.49485 7.36985 8.2 6.5 8.2V9.55C8.11543 9.55 9.425 8.24043 9.425 6.625H8.075ZM8.075 3.25V6.625H9.425V3.25H8.075ZM6.5 1.675C7.36985 1.675 8.075 2.38015 8.075 3.25H9.425C9.425 1.63457 8.11543 0.325 6.5 0.325V1.675ZM4.25 1.675H6.5V0.325H4.25V1.675ZM10.675 13.25C10.675 12.3802 11.3802 11.675 12.25 11.675V10.325C10.6346 10.325 9.325 11.6346 9.325 13.25H10.675ZM10.675 16.75V13.25H9.325V16.75H10.675ZM12.25 18.325C11.3802 18.325 10.675 17.6198 10.675 16.75H9.325C9.325 18.3654 10.6346 19.675 12.25 19.675V18.325ZM15.75 18.325H12.25V19.675H15.75V18.325ZM17.325 16.75C17.325 17.6198 16.6198 18.325 15.75 18.325V19.675C17.3654 19.675 18.675 18.3654 18.675 16.75H17.325ZM17.325 13.25V16.75H18.675V13.25H17.325ZM15.75 11.675C16.6198 11.675 17.325 12.3802 17.325 13.25H18.675C18.675 11.6346 17.3654 10.325 15.75 10.325V11.675ZM12.25 11.675H15.75V10.325H12.25V11.675ZM12.125 0.325C10.5096 0.325 9.2 1.63457 9.2 3.25H10.55C10.55 2.38015 11.2552 1.675 12.125 1.675V0.325ZM15.5 0.325H12.125V1.675H15.5V0.325ZM18.425 3.25C18.425 1.63457 17.1154 0.325 15.5 0.325V1.675C16.3698 1.675 17.075 2.38015 17.075 3.25H18.425ZM18.425 7.75V3.25H17.075V7.75H18.425ZM15.5 10.675C17.1154 10.675 18.425 9.36543 18.425 7.75H17.075C17.075 8.61985 16.3698 9.325 15.5 9.325V10.675ZM12.125 10.675H15.5V9.325H12.125V10.675ZM9.2 7.75C9.2 9.36543 10.5096 10.675 12.125 10.675V9.325C11.2552 9.325 10.55 8.61985 10.55 7.75H9.2ZM9.2 3.25V7.75H10.55V3.25H9.2ZM2.675 12.25C2.675 11.3802 3.38015 10.675 4.25 10.675V9.325C2.63457 9.325 1.325 10.6346 1.325 12.25H2.675ZM2.675 16.75V12.25H1.325V16.75H2.675ZM4.25 18.325C3.38015 18.325 2.675 17.6198 2.675 16.75H1.325C1.325 18.3654 2.63457 19.675 4.25 19.675V18.325ZM6.75 18.325H4.25V19.675H6.75V18.325ZM8.325 16.75C8.325 17.6198 7.61985 18.325 6.75 18.325V19.675C8.36543 19.675 9.675 18.3654 9.675 16.75H8.325ZM8.325 12.25V16.75H9.675V12.25H8.325ZM6.75 10.675C7.61985 10.675 8.325 11.3802 8.325 12.25H9.675C9.675 10.6346 8.36543 9.325 6.75 9.325V10.675ZM4.25 10.675H6.75V9.325H4.25V10.675Z" fill="#003B46" mask="url(#path-1-inside-1_1790_2999)"/>
</g>
</g>
</svg>
