<svg width="20" height="20" viewBox="0 0 20 20" fill="none" xmlns="http://www.w3.org/2000/svg">
<g id="icon">
<path id="Union" fill-rule="evenodd" clip-rule="evenodd" d="M13.1502 0.340088C12.3599 0.340088 11.7193 0.980695 11.7193 1.77092V5.99473C11.7193 7.32444 12.705 8.42393 13.9855 8.60244V12.0377C13.9855 13.2587 13.0467 14.2604 11.8516 14.3604C11.847 14.293 11.8405 14.2253 11.8322 14.1574L11.5922 12.1983C11.5088 11.5176 10.7334 11.151 10.0886 11.3844C8.30555 12.0301 6.55061 11.7893 5.2898 11.3554C4.64135 11.1322 3.85749 11.5176 3.77409 12.1983L3.53407 14.1574C3.26173 16.3802 4.99615 18.3401 7.23561 18.3401H8.13067C10.0472 18.3401 11.5938 16.9047 11.8293 15.0975C13.4406 15.0069 14.7193 13.6716 14.7193 12.0377V8.60243C15.9998 8.42388 16.9854 7.32441 16.9854 5.99473V1.77092C16.9854 0.980694 16.3448 0.340088 15.5546 0.340088H13.1502ZM14.3627 7.89396C15.4069 7.8884 16.2516 7.04022 16.2516 5.99473V5.38074C15.7775 5.3456 15.3993 5.21951 15.0575 5.10555L15.0458 5.10167C14.6413 4.96683 14.2871 4.85071 13.813 4.85071C13.6009 4.85071 13.3557 4.94758 13.0673 5.08488C13.0349 5.10028 13.0013 5.1165 12.9671 5.13303C12.8634 5.18315 12.7538 5.2361 12.6547 5.27755C12.5948 5.30259 12.5264 5.32908 12.4531 5.35009V5.99473C12.4531 7.04024 13.2979 7.88844 14.3421 7.89396L14.3524 7.89382L14.3627 7.89396ZM16.2516 1.77092V4.6445C15.8998 4.61155 15.6053 4.51467 15.2779 4.40552L15.2663 4.40164C14.8643 4.26765 14.4122 4.11691 13.813 4.11691C13.4146 4.11691 13.0302 4.28983 12.7519 4.4223C12.7094 4.44255 12.6696 4.46176 12.632 4.47993L12.6315 4.48014L12.6315 4.48015L12.6315 4.48018C12.5667 4.51145 12.5083 4.53966 12.4531 4.5648V1.77092C12.4531 1.38596 12.7652 1.07389 13.1502 1.07389H15.5546C15.9396 1.07389 16.2516 1.38596 16.2516 1.77092ZM7.68302 9.99684C8.80864 9.99684 9.74613 9.06173 9.74613 7.87706C9.74613 6.69239 8.80864 5.75728 7.68302 5.75728C6.5574 5.75728 5.61991 6.69239 5.61991 7.87706C5.61991 9.06173 6.5574 9.99684 7.68302 9.99684ZM7.68302 10.7306C9.22772 10.7306 10.4799 9.45305 10.4799 7.87706C10.4799 6.30107 9.22772 5.02347 7.68302 5.02347C6.13832 5.02347 4.8861 6.30107 4.8861 7.87706C4.8861 9.45305 6.13832 10.7306 7.68302 10.7306ZM11.1039 14.2466L10.8638 12.2875C10.8561 12.2242 10.818 12.1543 10.7134 12.1001C10.6022 12.0425 10.4598 12.0305 10.3385 12.0744C8.35316 12.7933 6.41881 12.52 5.05099 12.0492C4.93241 12.0084 4.78561 12.0211 4.66578 12.0851C4.55105 12.1464 4.5102 12.2242 4.50245 12.2875L4.26243 14.2466C4.04368 16.032 5.43681 17.6063 7.23561 17.6063H8.13067C9.92947 17.6063 11.3226 16.032 11.1039 14.2466Z" fill="#003B46"/>
<path id="Union_2" fill-rule="evenodd" clip-rule="evenodd" d="M9.23127 13.6798C9.23127 13.4921 9.07905 13.3398 8.89127 13.3398C8.70349 13.3398 8.55127 13.4921 8.55127 13.6798V14.3398H7.89127C7.70349 14.3398 7.55127 14.4921 7.55127 14.6798C7.55127 14.8676 7.70349 15.0198 7.89127 15.0198H8.55127V15.6798C8.55127 15.8676 8.70349 16.0198 8.89127 16.0198C9.07905 16.0198 9.23127 15.8676 9.23127 15.6798V15.0198H9.89127C10.079 15.0198 10.2313 14.8676 10.2313 14.6798C10.2313 14.4921 10.079 14.3398 9.89127 14.3398H9.23127V13.6798Z" fill="#003B46"/>
</g>
</svg>
