<svg width="20" height="20" viewBox="0 0 20 20" fill="none" xmlns="http://www.w3.org/2000/svg">
<g id="Account icon">
<path id="Union" fill-rule="evenodd" clip-rule="evenodd" d="M3.97136 6.23492C4.99402 5.97563 5.59333 4.97336 5.36298 4.02766C5.13263 3.08197 4.14318 2.48252 3.12052 2.74181C2.09786 3.0011 1.49855 4.00337 1.7289 4.94907C1.95925 5.89476 2.9487 6.49421 3.97136 6.23492ZM4.13229 6.8956C5.49985 6.54886 6.34595 5.19002 6.02212 3.86054C5.69829 2.53106 4.32715 1.73439 2.95959 2.08113C1.59204 2.42787 0.745928 3.78671 1.06976 5.11619C1.39359 6.44567 2.76473 7.24234 4.13229 6.8956ZM2.35715 8.65359C3.32208 8.68788 4.4977 8.55675 5.66422 8.0626L5.92123 7.18846C4.7052 7.83798 3.42306 8.00935 2.38676 7.97253C1.64336 7.94611 0.923734 8.5672 1.00637 9.30925L1.09718 10.1247C1.28542 11.815 2.55482 13.0817 4.10406 13.3691L4.29785 12.7099C3.00038 12.4989 1.92819 11.4504 1.77149 10.0434L1.68068 9.22795C1.66761 9.11055 1.71248 8.97506 1.84617 8.85042C1.98372 8.72218 2.17604 8.64716 2.35715 8.65359ZM18.9048 10.1248C18.6897 12.0563 17.0628 13.4348 15.2199 13.4307L15.0173 12.7421C16.6052 12.8495 18.0468 11.6929 18.2305 10.0435L18.3213 9.22808C18.3344 9.11068 18.2895 8.97518 18.1558 8.85054C18.0183 8.72231 17.8259 8.64729 17.6448 8.65372C16.4534 8.69606 14.9406 8.48618 13.5205 7.65209L13.286 6.85475C13.4698 6.87938 13.6514 6.94032 13.8156 7.03857C15.1082 7.81198 16.5033 8.01217 17.6152 7.97265C18.3586 7.94624 19.0782 8.56733 18.9956 9.30938L18.9048 10.1248ZM16.0306 6.23504C15.008 5.97575 14.4086 4.97349 14.639 4.02779C14.8694 3.08209 15.8588 2.48265 16.8815 2.74194C17.9041 3.00123 18.5034 4.00349 18.2731 4.94919C18.0427 5.89489 17.0533 6.49433 16.0306 6.23504ZM15.8697 6.89573C14.5021 6.54899 13.656 5.19015 13.9799 3.86067C14.3037 2.53119 15.6748 1.73452 17.0424 2.08126C18.4099 2.42799 19.2561 3.78684 18.9322 5.11631C18.6084 6.44579 17.2372 7.24246 15.8697 6.89573ZM9.65163 8.90159C10.9722 8.90159 12.0659 7.80555 12.0659 6.42465C12.0659 5.04375 10.9722 3.94771 9.65163 3.94771C8.33106 3.94771 7.23736 5.04375 7.23736 6.42465C7.23736 7.80555 8.33106 8.90159 9.65163 8.90159ZM9.65163 9.58159C11.3605 9.58159 12.7459 8.16818 12.7459 6.42465C12.7459 4.68112 11.3605 3.26771 9.65163 3.26771C7.94271 3.26771 6.55736 4.68112 6.55736 6.42465C6.55736 8.16818 7.94271 9.58159 9.65163 9.58159ZM13.567 13.4553L13.3014 11.288C13.2867 11.1681 13.2129 11.0564 13.0648 10.9796C12.9106 10.8998 12.7149 10.8826 12.5445 10.9443C10.3844 11.7265 8.27668 11.43 6.78266 10.9157C6.61453 10.8579 6.41418 10.8769 6.2515 10.9638C6.09354 11.0482 6.01675 11.1682 6.00207 11.288L5.73653 13.4553C5.4849 15.5091 7.08745 17.32 9.15663 17.32H10.1469C12.2161 17.32 13.8186 15.5091 13.567 13.4553ZM13.9764 11.2053L14.2419 13.3726C14.5432 15.8318 12.6244 18 10.1469 18H9.15663C6.6791 18 4.76029 15.8318 5.06158 13.3726L5.32712 11.2053C5.41938 10.4522 6.28658 10.0258 7.00396 10.2728C8.39881 10.7528 10.3403 11.0193 12.313 10.3049C13.0263 10.0466 13.8841 10.4522 13.9764 11.2053Z" fill="#003B46"/>
</g>
</svg>
