<svg width="20" height="20" viewBox="0 0 20 20" fill="none" xmlns="http://www.w3.org/2000/svg">
<g id="Account icon">
<path id="Union" fill-rule="evenodd" clip-rule="evenodd" d="M6.02212 3.86054C6.34595 5.19002 5.49985 6.54886 4.13229 6.8956C2.76473 7.24234 1.39359 6.44567 1.06976 5.11619C0.745928 3.78671 1.59204 2.42787 2.95959 2.08113C4.32715 1.73439 5.69829 2.53106 6.02212 3.86054ZM5.92123 7.18846L4.10406 13.3691C2.55482 13.0817 1.28542 11.815 1.09718 10.1247L1.00637 9.30925C0.923734 8.5672 1.64336 7.94611 2.38676 7.97253C3.42306 8.00935 4.7052 7.83798 5.92123 7.18846ZM18.9048 10.1248C18.6897 12.0563 17.0628 13.4348 15.2199 13.4307L13.286 6.85475C13.4698 6.87938 13.6514 6.94032 13.8156 7.03857C15.1082 7.81198 16.5033 8.01217 17.6152 7.97265C18.3586 7.94624 19.0782 8.56733 18.9956 9.30938L18.9048 10.1248ZM13.9799 3.86067C13.656 5.19015 14.5021 6.54899 15.8697 6.89573C17.2372 7.24246 18.6084 6.44579 18.9322 5.11631C19.2561 3.78684 18.4099 2.42799 17.0424 2.08126C15.6748 1.73452 14.3037 2.53119 13.9799 3.86067ZM12.7459 6.42465C12.7459 8.16818 11.3605 9.58159 9.65163 9.58159C7.94271 9.58159 6.55736 8.16818 6.55736 6.42465C6.55736 4.68112 7.94271 3.26771 9.65163 3.26771C11.3605 3.26771 12.7459 4.68112 12.7459 6.42465ZM14.2419 13.3726L13.9764 11.2053C13.8841 10.4522 13.0263 10.0466 12.313 10.3049C10.3403 11.0193 8.39881 10.7528 7.00396 10.2728C6.28658 10.0258 5.41938 10.4522 5.32712 11.2053L5.06158 13.3726C4.76029 15.8318 6.67909 18 9.15663 18H10.1469C12.6244 18 14.5432 15.8318 14.2419 13.3726Z" fill="#003B46"/>
</g>
</svg>
