<svg width="20" height="20" viewBox="0 0 20 20" fill="none" xmlns="http://www.w3.org/2000/svg">
<g id="icon">
<path id="Union" fill-rule="evenodd" clip-rule="evenodd" d="M15.1103 7.12904V11.5142C15.1103 11.8291 15.2355 12.1311 15.4581 12.3538L16.2455 13.141C16.4997 13.3953 16.6426 13.7401 16.6426 14.0997C16.6426 14.9507 15.9528 15.6405 15.1018 15.6405H13.1095L13.1136 15.6324H12.0089H7.00892H6.04054L6.04348 15.6405H4.2208C3.36984 15.6405 2.68 14.9507 2.68 14.0997C2.68 13.7401 2.82286 13.3953 3.07715 13.141L3.86446 12.3538C4.08715 12.1311 4.21226 11.8291 4.21226 11.5142V7.12904C4.21226 4.11962 6.65188 1.68 9.6613 1.68C12.6707 1.68 15.1103 4.11962 15.1103 7.12904ZM6.28892 16.3205H4.2208C2.99429 16.3205 2 15.3262 2 14.0997C2 13.5598 2.21452 13.0419 2.59635 12.6601L3.38366 11.8729C3.47881 11.7778 3.53226 11.6488 3.53226 11.5142V7.12904C3.53226 3.74406 6.27633 1 9.6613 1C13.0463 1 15.7903 3.74407 15.7903 7.12904V11.5142C15.7903 11.6488 15.8438 11.7778 15.9389 11.8729L16.7263 12.6601C17.1081 13.0419 17.3226 13.5598 17.3226 14.0997C17.3226 15.3262 16.3283 16.3205 15.1018 16.3205H12.7664L12.616 16.6186L12.295 17.2551C11.7576 18.3205 10.6661 18.9924 9.47286 18.9924C8.14095 18.9924 6.95194 18.1575 6.49976 16.9046L6.36931 16.5432L6.28892 16.3205ZM7.01186 16.3205L7.13937 16.6738C7.17925 16.7843 7.22643 16.8906 7.28026 16.9924C7.70543 17.7961 8.54496 18.3124 9.47286 18.3124C10.393 18.3124 11.2361 17.8033 11.6654 16.9924C11.673 16.978 11.6805 16.9635 11.6878 16.9489L12.0048 16.3205H7.01186Z" fill="#003B46"/>
</g>
</svg>
